<?xml version="1.0" encoding="UTF-8" standalone="no"?>
<svg
   xmlns:dc="http://purl.org/dc/elements/1.1/"
   xmlns:cc="http://creativecommons.org/ns#"
   xmlns:rdf="http://www.w3.org/1999/02/22-rdf-syntax-ns#"
   xmlns:svg="http://www.w3.org/2000/svg"
   xmlns="http://www.w3.org/2000/svg"
   xmlns:sodipodi="http://sodipodi.sourceforge.net/DTD/sodipodi-0.dtd"
   xmlns:inkscape="http://www.inkscape.org/namespaces/inkscape"
   version="1.1"
   x="0px"
   y="0px"
   viewBox="0 0 100 100"
   enable-background="new 0 0 100 100"
   xml:space="preserve"
   id="svg2"
   inkscape:version="0.91 r13725"
   sodipodi:docname="bell.svg"><metadata
     id="metadata14"><rdf:RDF><cc:Work
         rdf:about=""><dc:format>image/svg+xml</dc:format><dc:type
           rdf:resource="http://purl.org/dc/dcmitype/StillImage" /></cc:Work></rdf:RDF></metadata><defs
     id="defs12" /><sodipodi:namedview
     pagecolor="#ffffff"
     bordercolor="#666666"
     borderopacity="1"
     objecttolerance="10"
     gridtolerance="10"
     guidetolerance="10"
     inkscape:pageopacity="0"
     inkscape:pageshadow="2"
     inkscape:window-width="2774"
     inkscape:window-height="1581"
     id="namedview10"
     showgrid="false"
     inkscape:zoom="7.552"
     inkscape:cx="41.569543"
     inkscape:cy="41.569543"
     inkscape:window-x="106"
     inkscape:window-y="39"
     inkscape:window-maximized="1"
     inkscape:current-layer="svg2" /><path
     fill="#000000"
     d="M77.344,56.702V44.979c0-11.69-6.915-21.734-17.28-25.795C59.023,14.505,54.906,11,50,11  c-4.906,0-9.023,3.505-10.064,8.185c-10.365,4.061-17.28,14.105-17.28,25.795v11.723l-6.16,6.325  c-0.546,0.56-0.851,1.311-0.851,2.093v8.93c0,1.605,1.301,2.905,2.905,2.905h19.381C37.946,83.375,43.579,89,50,89  c6.421,0,12.054-5.625,12.069-12.044H81.45c1.605,0,2.905-1.301,2.905-2.905v-8.93c0-0.782-0.305-1.533-0.851-2.093L77.344,56.702z   M50,83.189c-3.433,0-6.242-3.236-6.258-6.234h12.517C56.242,79.953,53.433,83.189,50,83.189z M78.544,71.145H21.456v-4.883  l7.011-7.198c0-6.887,0-12.833,0-14.085c0-10.591,7.011-19.293,17.026-21.412c0-1.081,0-1.853,0-2.062  c0-2.504,2.003-4.695,4.507-4.695c2.504,0,4.507,2.191,4.507,4.695c0,0.209,0,0.981,0,2.062  c10.016,2.118,17.027,10.821,17.027,21.412c0,1.565,0,7.198,0,14.085l7.011,7.198V71.145z"
     id="path4" /></svg>
