<?xml version="1.0" encoding="UTF-8" standalone="no"?>
<svg
   xmlns:dc="http://purl.org/dc/elements/1.1/"
   xmlns:cc="http://creativecommons.org/ns#"
   xmlns:rdf="http://www.w3.org/1999/02/22-rdf-syntax-ns#"
   xmlns:svg="http://www.w3.org/2000/svg"
   xmlns="http://www.w3.org/2000/svg"
   xmlns:sodipodi="http://sodipodi.sourceforge.net/DTD/sodipodi-0.dtd"
   xmlns:inkscape="http://www.inkscape.org/namespaces/inkscape"
   version="1.1"
   x="0px"
   y="0px"
   viewBox="0 0 100 125"
   enable-background="new 0 0 100 100"
   xml:space="preserve"
   id="svg2"
   inkscape:version="0.91 r13725"
   sodipodi:docname="bell_disabled.svg"><metadata
     id="metadata18"><rdf:RDF><cc:Work
         rdf:about=""><dc:format>image/svg+xml</dc:format><dc:type
           rdf:resource="http://purl.org/dc/dcmitype/StillImage" /></cc:Work></rdf:RDF></metadata><defs
     id="defs16" /><sodipodi:namedview
     pagecolor="#ffffff"
     bordercolor="#666666"
     borderopacity="1"
     objecttolerance="10"
     gridtolerance="10"
     guidetolerance="10"
     inkscape:pageopacity="0"
     inkscape:pageshadow="2"
     inkscape:window-width="2774"
     inkscape:window-height="1581"
     id="namedview14"
     showgrid="false"
     inkscape:zoom="1.888"
     inkscape:cx="72.775424"
     inkscape:cy="62.5"
     inkscape:window-x="106"
     inkscape:window-y="39"
     inkscape:window-maximized="1"
     inkscape:current-layer="svg2" /><g
     id="g4"><path
       fill="#000000"
       d="M86.521,82.587L18.076,14.142c-0.391-0.391-1.024-0.391-1.414,0l-2.694,2.694   c-0.391,0.391-0.391,1.024,0,1.414L26.34,30.624c-2.477,4.192-3.881,9.105-3.881,14.356v11.723l-6.16,6.324   c-0.546,0.56-0.851,1.311-0.851,2.093v8.93c0,1.605,1.301,2.905,2.905,2.905h19.381C37.75,83.375,43.382,89,49.803,89   c6.421,0,12.054-5.625,12.069-12.044h10.799l9.74,9.74c0.391,0.391,1.024,0.391,1.414,0l2.694-2.694   C86.911,83.611,86.911,82.978,86.521,82.587z M49.803,83.189c-3.433,0-6.242-3.236-6.258-6.234h12.517   C56.046,79.953,53.237,83.189,49.803,83.189z M21.259,71.145v-4.883l7.011-7.198c0-6.887,0-12.833,0-14.085   c0-3.651,0.839-7.073,2.345-10.081l36.246,36.246H21.259z"
       id="path6" /><path
       fill="#000000"
       d="M45.296,23.568c0-1.081,0-1.853,0-2.062c0-2.504,2.003-4.695,4.507-4.695c2.504,0,4.507,2.191,4.507,4.695   c0,0.209,0,0.981,0,2.062c10.016,2.118,17.027,10.821,17.027,21.412c0,1.565,0,7.198,0,14.085l5.823,5.979l6.998,6.998V65.12   c0-0.782-0.305-1.533-0.851-2.093l-6.16-6.325V44.979c0-11.69-6.915-21.734-17.28-25.795C58.827,14.505,54.71,11,49.803,11   c-4.906,0-9.023,3.505-10.064,8.185c-1.968,0.771-3.81,1.76-5.505,2.932l4.192,4.192C40.488,25.035,42.799,24.096,45.296,23.568z"
       id="path8" /></g></svg>