<?xml version="1.0" encoding="UTF-8" standalone="no"?>
<!-- Created with Inkscape (http://www.inkscape.org/) -->

<svg
   xmlns:dc="http://purl.org/dc/elements/1.1/"
   xmlns:cc="http://creativecommons.org/ns#"
   xmlns:rdf="http://www.w3.org/1999/02/22-rdf-syntax-ns#"
   xmlns:svg="http://www.w3.org/2000/svg"
   xmlns="http://www.w3.org/2000/svg"
   xmlns:sodipodi="http://sodipodi.sourceforge.net/DTD/sodipodi-0.dtd"
   xmlns:inkscape="http://www.inkscape.org/namespaces/inkscape"
   width="210mm"
   height="210mm"
   viewBox="0 0 744.09448819 1052.3622047"
   id="svg3377"
   version="1.1"
   inkscape:version="0.91 r13725"
   sodipodi:docname="close.svg">
  <defs
     id="defs3379" />
  <sodipodi:namedview
     id="base"
     pagecolor="#ffffff"
     bordercolor="#666666"
     borderopacity="1.0"
     inkscape:pageopacity="0.0"
     inkscape:pageshadow="2"
     inkscape:zoom="0.35"
     inkscape:cx="-1322.1429"
     inkscape:cy="520"
     inkscape:document-units="px"
     inkscape:current-layer="layer1"
     showgrid="false"
     inkscape:window-width="2774"
     inkscape:window-height="1581"
     inkscape:window-x="106"
     inkscape:window-y="39"
     inkscape:window-maximized="1" />
  <metadata
     id="metadata3382">
    <rdf:RDF>
      <cc:Work
         rdf:about="">
        <dc:format>image/svg+xml</dc:format>
        <dc:type
           rdf:resource="http://purl.org/dc/dcmitype/StillImage" />
        <dc:title />
      </cc:Work>
    </rdf:RDF>
  </metadata>
  <g
     inkscape:label="Livello 1"
     inkscape:groupmode="layer"
     id="layer1">
    <path
       inkscape:connector-curvature="0"
       style="stroke:#c8c8c8;stroke-linecap:square;stroke-opacity:0.40123985"
       d="m 782.21096,580.93363 -6.53073,-6.53072 -0.32309,-0.32309 0.64618,-0.64619 0.3231,0.3231 6.53072,6.53072 6.53072,-6.53072 0.3231,-0.3231 0.64618,0.64619 -0.32309,0.32309 -6.53073,6.53072 6.53073,6.53073 0.32309,0.32309 -0.64618,0.64618 -0.3231,-0.32309 -6.53072,-6.53072 -6.53072,6.53072 -0.3231,0.32309 -0.64618,-0.64618 0.32309,-0.32309 6.53073,-6.53073 z"
       id="Line" />
    <path
       inkscape:connector-curvature="0"
       style="stroke:#c8c8c8;stroke-width:63.61870575;stroke-linecap:square;stroke-opacity:0.40123985"
       d="M 331.87052,527.46446 -83.606095,111.98849 -104.16065,91.433914 -63.05152,50.324146 -42.496309,70.879356 372.97966,486.35535 788.45562,70.879356 l 20.55525,-20.55521 41.1091,41.109768 -20.55454,20.554576 -415.47662,415.47597 415.47662,415.47659 20.55454,20.55466 -41.1091,41.10909 -20.55525,-20.55455 -415.47596,-415.476 -415.475969,415.476 -20.555211,20.55455 -41.10913,-41.10909 20.554555,-20.55466 415.476615,-415.47659 z"
       id="Line-6" />
  </g>
</svg>
