<?xml version="1.0" encoding="UTF-8" standalone="no"?>
<svg width="384px" height="134px" viewBox="0 0 384 134" version="1.1" xmlns="http://www.w3.org/2000/svg" xmlns:xlink="http://www.w3.org/1999/xlink">
    <!-- Generator: Sketch 3.6 (26304) - http://www.bohemiancoding.com/sketch -->
    <title>notification</title>
    <desc>Created with Sketch.</desc>
    <defs>
        <filter x="-50%" y="-50%" width="200%" height="200%" filterUnits="objectBoundingBox" id="filter-1">
            <feOffset dx="0" dy="2" in="SourceAlpha" result="shadowOffsetOuter1"/>
            <feGaussianBlur stdDeviation="3.5" in="shadowOffsetOuter1" result="shadowBlurOuter1"/>
            <feColorMatrix values="0 0 0 0 0   0 0 0 0 0   0 0 0 0 0  0 0 0 0.35 0" in="shadowBlurOuter1" type="matrix" result="shadowMatrixOuter1"/>
            <feMerge>
                <feMergeNode in="shadowMatrixOuter1"/>
                <feMergeNode in="SourceGraphic"/>
            </feMerge>
        </filter>
    </defs>
    <g id="Wireframes" stroke="none" stroke-width="1" fill="none" fill-rule="evenodd">
        <g id="2.1a-Subscribe-Tooltip" transform="translate(-76.000000, -940.000000)">
            <g id="notification" transform="translate(83.000000, 945.000000)">
                <g id="Notification">
                    <rect id="Rectangle-15" stroke="#C8C8C8" fill="#FFFFFF" filter="url(#filter-1)" x="0" y="0" width="370" height="120" rx="3"/>
                    <rect id="Rectangle-13" fill="#9B9B9B" x="15" y="15" width="90" height="90"/>
                    <path d="M351.853816,17.5 L345.323092,10.969276 L345,10.646184 L345.646184,10 L345.969276,10.323092 L352.5,16.853816 L359.030724,10.323092 L359.353816,10 L360,10.646184 L359.676908,10.969276 L353.146184,17.5 L359.676908,24.030724 L360,24.353816 L359.353816,25 L359.030724,24.676908 L352.5,18.146184 L345.969276,24.676908 L345.646184,25 L345,24.353816 L345.323092,24.030724 L351.853816,17.5 Z" id="Line" stroke-opacity="0.40123981" stroke="#C8C8C8" stroke-linecap="square"/>
                    <g id="Group-3" transform="translate(115.000000, 15.000000)" fill="#D8D8D8">
                        <rect id="Rectangle-15" x="0" y="0" width="207" height="15"/>
                        <rect id="Rectangle-15-Copy" x="0" y="30" width="197" height="10"/>
                        <rect id="Rectangle-15-Copy-2" x="0" y="50" width="102" height="10"/>
                        <rect id="Rectangle-15-Copy-4" x="110" y="50" width="44" height="10"/>
                        <rect id="Rectangle-15-Copy-5" x="164" y="70" width="44" height="10"/>
                        <rect id="Rectangle-15-Copy-3" x="0" y="70" width="154" height="10"/>
                    </g>
                </g>
            </g>
        </g>
    </g>
</svg>